<?xml version="1.0" standalone="no"?>
<!DOCTYPE svg PUBLIC "-//W3C//DTD SVG 20010904//EN"
 "http://www.w3.org/TR/2001/REC-SVG-20010904/DTD/svg10.dtd">
<svg version="1.0" xmlns="http://www.w3.org/2000/svg"
 width="319.000000pt" height="319.000000pt" viewBox="0 0 319.000000 319.000000"
 preserveAspectRatio="xMidYMid meet">
<metadata>
Created by potrace 1.11, written by Peter Selinger 2001-2013
</metadata>
<g transform="translate(0.000000,319.000000) scale(0.100000,-0.100000)"
fill="#000000" stroke="none">
<path d="M0 1960 l0 -1230 1595 0 1595 0 0 1230 0 1230 -65 0 c-36 0 -65 -4
-65 -8 0 -4 11 -23 25 -42 14 -19 25 -40 25 -47 0 -8 7 -28 16 -44 12 -23 13
-34 4 -44 -14 -16 -5 -35 16 -35 8 0 14 -9 14 -20 0 -15 -7 -20 -25 -20 -35 0
-44 -40 -16 -79 22 -30 19 -61 -5 -61 -8 0 -14 -6 -14 -14 0 -8 -13 -27 -29
-43 -27 -28 -29 -33 -33 -148 -3 -95 -9 -128 -25 -160 -11 -22 -24 -55 -28
-74 -4 -19 -13 -41 -21 -48 -7 -8 -16 -30 -19 -51 -12 -76 -35 -133 -79 -193
-25 -35 -46 -68 -46 -74 0 -7 -16 -28 -35 -48 -19 -20 -35 -41 -35 -46 0 -13
-42 -42 -67 -46 -10 -1 -17 -8 -15 -15 4 -19 -29 -39 -66 -40 -24 0 -42 -9
-68 -35 -28 -28 -42 -35 -74 -35 -21 0 -45 -6 -52 -12 -24 -22 -57 -38 -78
-38 -12 0 -33 -6 -48 -14 -40 -20 -222 -30 -274 -15 -24 7 -47 16 -52 21 -6 4
-21 8 -35 8 -15 0 -40 9 -58 20 -41 25 -148 60 -183 60 -25 0 -43 15 -87 71
-7 9 -18 40 -23 69 -6 30 -16 58 -23 62 -16 10 -63 10 -85 -1 -16 -9 -125 -28
-227 -40 -28 -4 -68 -17 -88 -30 -31 -19 -48 -22 -88 -19 -27 3 -52 1 -55 -3
-3 -5 -31 -9 -62 -9 -55 0 -129 -30 -120 -48 17 -31 38 -83 43 -104 10 -39
-23 -55 -67 -32 -53 28 -141 30 -181 5 -45 -27 -128 -48 -229 -57 -46 -4 -86
-12 -90 -17 -5 -8 -15 -7 -32 3 -18 9 -32 10 -47 4 -33 -15 -87 5 -97 36 -5
14 -14 41 -21 60 -19 54 -25 271 -12 405 13 126 28 200 92 455 43 173 52 201
93 280 16 30 53 102 83 160 52 100 95 167 117 182 6 4 -98 8 -231 8 l-243 0 0
-1230z m1631 -371 c23 -11 54 -34 70 -50 15 -16 31 -29 34 -29 16 0 155 -128
155 -143 0 -20 -69 -54 -140 -67 -306 -60 -502 -76 -660 -54 -58 7 -123 14
-145 14 -84 0 -233 58 -255 100 -10 19 24 76 52 85 9 3 47 35 85 70 45 43 81
67 107 74 39 10 40 9 92 -45 42 -44 63 -58 106 -70 92 -24 190 -13 275 31 15
8 34 15 41 15 6 0 22 10 34 23 24 23 88 66 101 67 4 0 26 -9 48 -21z m373
-340 c-9 -11 -22 -19 -29 -19 -6 0 -31 -10 -55 -21 -73 -35 -196 -75 -401
-129 -280 -75 -434 -79 -573 -16 -17 8 -47 22 -66 30 -71 32 -206 120 -214
141 -14 36 42 28 124 -19 61 -35 130 -63 235 -98 59 -19 91 -23 200 -23 88 1
151 6 195 18 36 9 124 30 195 47 193 47 292 79 322 104 23 20 32 22 56 14 27
-10 27 -11 11 -29z"/>
<path d="M1765 3161 c-33 -16 -84 -49 -112 -74 -29 -25 -56 -47 -61 -49 -14
-5 -92 -126 -92 -142 0 -9 -12 -40 -27 -68 -15 -29 -33 -66 -41 -81 -18 -37
-9 -80 23 -113 14 -14 25 -33 25 -43 0 -23 28 -47 50 -43 9 1 30 -4 45 -12 27
-14 30 -14 39 1 8 14 10 13 22 -8 7 -13 13 -36 14 -51 0 -41 25 -109 91 -253
29 -64 73 -109 138 -144 44 -23 71 -31 98 -29 45 4 54 24 16 40 -123 53 -213
218 -213 393 0 102 20 180 70 269 43 78 51 86 130 135 109 67 171 75 335 41
53 -11 101 -20 105 -20 17 0 -10 62 -37 88 -16 15 -37 38 -48 52 -27 34 -90
82 -145 111 -41 21 -61 23 -205 26 -159 3 -160 3 -220 -26z"/>
<path d="M725 3126 c-118 -29 -219 -118 -280 -247 -17 -35 -33 -66 -36 -69 -4
-3 -17 -29 -29 -58 -19 -44 -22 -65 -18 -128 5 -75 21 -112 37 -86 13 21 49
-28 57 -78 4 -25 13 -54 20 -65 8 -11 14 -27 14 -36 0 -32 39 -136 69 -185 33
-53 122 -129 165 -140 14 -3 26 -2 26 2 0 5 -26 33 -59 64 -117 110 -166 267
-143 453 12 89 43 159 106 236 78 95 168 134 298 129 42 -2 80 0 84 4 4 4 -5
25 -20 46 -14 21 -26 45 -26 53 -1 26 -38 59 -92 83 -71 31 -113 37 -173 22z"/>
<path d="M2015 2791 c-11 -5 -43 -30 -72 -57 -60 -57 -77 -105 -71 -200 7
-119 98 -213 191 -199 120 18 215 166 186 293 -14 65 -33 91 -85 113 -24 11
-47 26 -52 35 -10 18 -69 27 -97 15z"/>
<path d="M760 2701 c-8 -4 -28 -14 -45 -22 -50 -24 -86 -87 -92 -160 -7 -90 9
-142 62 -195 41 -41 48 -44 97 -44 62 0 87 17 138 95 30 45 33 57 33 126 1 91
-17 135 -72 178 -39 31 -87 40 -121 22z"/>
<path d="M79 549 c-15 -29 -1 -40 55 -46 25 -3 50 -11 54 -17 16 -20 21 -73 9
-85 -9 -9 -9 -16 0 -31 9 -14 10 -27 2 -49 -7 -19 -7 -36 -1 -47 5 -9 6 -32 1
-53 -10 -46 3 -56 71 -52 42 3 96 81 56 81 -25 0 -25 28 -1 52 24 22 33 48 17
48 -4 0 -13 -5 -20 -12 -9 -9 -12 -7 -12 9 0 11 10 27 23 36 12 8 18 19 14 23
-4 5 -12 3 -16 -5 -5 -8 -10 3 -14 31 -3 24 -3 46 1 50 4 3 34 8 68 11 l61 5
-3 -98 c-1 -54 -5 -112 -9 -128 -4 -22 -2 -31 10 -36 13 -5 14 -10 4 -27 -9
-17 -8 -23 2 -30 20 -13 93 -11 107 3 8 8 29 8 84 -1 40 -6 84 -11 98 -10 14
0 92 0 173 0 120 -1 154 2 176 15 25 15 31 15 74 0 63 -21 186 -21 247 1 45
16 50 16 95 -1 51 -20 181 -24 226 -8 14 6 36 5 54 0 16 -5 91 -8 165 -7 74 1
160 1 192 0 48 -2 58 1 72 20 8 12 13 26 10 31 -3 4 0 8 6 8 7 0 14 -9 17 -21
4 -15 11 -19 26 -15 11 2 29 -1 41 -9 16 -10 89 -13 331 -14 170 0 326 4 345
9 20 5 51 26 70 45 l35 36 -2 92 c0 51 4 98 9 105 8 9 5 12 -11 12 -16 0 -21
6 -21 24 0 17 -11 31 -37 48 -36 22 -47 23 -263 25 -284 4 -308 1 -322 -38
-10 -30 -22 -37 -33 -19 -4 6 -10 8 -15 5 -4 -3 -11 2 -14 11 -16 41 -125 47
-621 33 -16 0 -67 3 -112 6 -72 7 -87 5 -128 -15 -48 -23 -112 -22 -127 3 -5
8 -42 12 -107 12 -80 0 -102 -3 -118 -17 -11 -10 -26 -18 -34 -18 -16 0 -49
-73 -49 -110 0 -14 -5 -32 -10 -40 -7 -12 -11 -10 -19 10 -9 24 -10 24 -10 -7
-1 -22 4 -33 13 -33 19 0 26 -12 30 -52 2 -18 6 -40 10 -49 9 -20 -22 -35 -38
-19 -5 5 -19 10 -31 10 -42 0 -58 22 -50 68 6 36 10 42 31 42 26 0 32 18 12
38 -9 9 -9 12 0 12 24 0 11 19 -15 22 -22 2 -27 9 -30 36 -4 29 -1 32 21 32
29 0 96 30 96 42 0 5 -16 16 -37 24 -53 23 -270 16 -284 -8 -11 -20 -49 -18
-93 5 -24 13 -79 16 -312 16 -278 1 -284 0 -295 -20z m736 -49 c3 -5 20 -10
36 -10 27 0 29 -2 23 -27 -3 -16 -8 -34 -10 -42 -3 -8 0 -17 5 -21 7 -4 7 -18
0 -43 -5 -21 -6 -43 -2 -50 23 -36 3 -63 -54 -70 -26 -3 -57 -9 -68 -13 -11
-4 -17 -4 -13 0 10 12 -12 66 -28 66 -20 0 -18 47 3 58 9 6 14 16 10 25 -4 10
1 20 11 26 12 7 16 20 14 48 -3 34 0 40 25 50 37 14 41 15 48 3z m1293 -31 c7
-22 9 -45 6 -51 -8 -12 -177 -3 -203 12 -9 4 -17 20 -19 33 -2 25 1 26 76 32
42 4 82 8 87 10 29 10 41 2 53 -36z m648 14 c19 -30 20 -53 1 -65 -10 -7 -73
-4 -157 7 -14 2 -28 4 -33 4 -4 1 -6 14 -5 31 2 28 5 29 58 35 30 3 62 8 70 9
37 8 49 4 66 -21z m-1355 -4 c32 0 36 -2 32 -19 -9 -34 -32 -44 -97 -42 -89 3
-118 11 -114 30 4 21 74 43 113 36 17 -3 46 -5 66 -5z m385 -44 c-16 -25 -20
-26 -92 -21 -41 2 -77 6 -80 9 -3 2 -21 1 -40 -3 -44 -10 -46 10 -4 40 24 17
42 21 110 19 44 -1 84 1 87 5 4 4 13 0 21 -8 13 -13 13 -18 -2 -41z m1143 43
c32 -10 39 -18 49 -52 7 -25 9 -62 4 -96 -6 -49 -10 -55 -32 -58 -14 -2 -29
-8 -34 -13 -6 -5 -20 -9 -33 -9 -22 0 -24 4 -23 48 1 26 1 76 1 111 0 89 1 90
68 69z m-686 -28 c-3 -11 -9 -23 -14 -26 -10 -6 -12 39 -3 49 12 12 22 -3 17
-23z m185 -20 c-2 -22 -1 -40 2 -40 3 0 13 -12 22 -28 20 -34 13 -78 -14 -85
-16 -5 -19 -11 -14 -31 12 -49 -21 -28 -49 31 l-28 56 33 30 c27 24 32 34 27
62 -6 34 -1 45 16 45 5 0 7 -18 5 -40z m-1418 -39 c0 -6 -4 -13 -10 -16 -5 -3
-10 1 -10 9 0 9 5 16 10 16 6 0 10 -4 10 -9z m1096 -39 c8 -5 11 -67 5 -114
-1 -9 -86 -9 -156 0 -49 7 -50 8 -56 47 -4 22 -5 42 -2 45 4 5 143 27 178 29
11 0 25 -3 31 -7z m-462 -23 c12 -10 -12 -59 -33 -67 -33 -12 -79 39 -66 75 4
13 83 6 99 -8z m1125 -1 c-1 -13 2 -31 6 -42 12 -28 -7 -51 -44 -50 -17 0 -63
1 -102 2 l-72 2 6 35 c3 19 1 37 -4 40 -33 21 6 30 139 33 71 2 73 1 71 -20z
m-1460 -11 c-1 -12 2 -30 6 -41 8 -17 5 -18 -41 -11 -27 4 -49 8 -49 8 0 1 -5
16 -11 33 l-11 31 53 2 c50 1 54 -1 53 -22z"/>
</g>
</svg>
